#!OML:ASF C:\Vicon Data\Big\jianyuan-12\jianyuan\Session 1\Capture.male.ASF
:FULLY-SPECIFIED
:DEGREES
181
root -11.069911 16.917563 -10.673150 1.082218 -28.892388 12.433430
lowerback -9.861648 -1.511903 -10.130221 
upperback 1.708575 -0.479428 -3.039935 
thorax 7.471372 -0.575211 2.377169 
lowerneck -1.608068 -6.253317 -6.310897 
upperneck 7.677555 -8.650140 7.449698 
head 3.272763 -4.222205 3.074531 
rclavicle 0.000000 0.000000 
rhumerus -40.572481 -29.491201 -76.175336 
rradius 33.897484 
rwrist 38.934787 
rhand -21.619561 -4.058887 
rfingers 0.000000 
rthumb 4.776142 -33.985072 
lclavicle 0.000000 0.000000 
lhumerus -36.270007 43.323129 67.817489 
lradius 24.868192 
lwrist -60.857411 
lhand -11.111607 4.104023 
lfingers 0.000000 
lthumb 14.913016 33.547182 
rfemur -24.047763 -10.569445 9.188954 
rtibia 73.286360 
rfoot -11.156819 -10.946216 
rtoes -13.680364 
lfemur -17.455625 -1.891412 -32.001863 
ltibia 21.686564 
lfoot -17.085636 2.930077 
ltoes -9.663946 
182
root -11.089241 16.918737 -10.605721 0.896012 -28.970407 12.400507
lowerback -9.767592 -1.538395 -10.075769 
upperback 1.807334 -0.528441 -3.019334 
thorax 7.529593 -0.602804 2.360069 
lowerneck -1.645256 -6.211133 -6.316080 
upperneck 7.673348 -8.583590 7.356626 
head 3.338390 -4.195511 3.112981 
rclavicle 0.000000 0.000000 
rhumerus -40.647515 -29.491208 -76.146983 
rradius 33.931804 
rwrist 38.969558 
rhand -21.663489 -4.004790 
rfingers 0.000000 
rthumb 4.733724 -33.931910 
lclavicle 0.000000 0.000000 
lhumerus -35.465436 42.972686 68.555643 
lradius 24.974914 
lwrist -60.275871 
lhand -11.116769 4.138276 
lfingers 0.000000 
lthumb 14.908048 33.581822 
rfemur -24.543686 -10.601505 9.207627 
rtibia 73.479001 
rfoot -11.488671 -10.971723 
rtoes -13.293199 
lfemur -16.950799 -2.300808 -32.023090 
ltibia 21.666518 
lfoot -17.521595 3.373447 
ltoes -9.696391 
183
root -11.115277 16.921763 -10.537151 0.859813 -29.117090 12.408465
lowerback -9.895299 -1.603835 -10.117353 
upperback 1.894674 -0.591261 -2.956614 
thorax 7.707549 -0.646703 2.434934 
lowerneck -1.760521 -6.161571 -6.418530 
upperneck 7.850255 -8.525713 7.465041 
head 3.216649 -4.151592 2.976391 
rclavicle 0.000000 0.000000 
rhumerus -40.576110 -29.371994 -76.161333 
rradius 33.947413 
rwrist 38.985028 
rhand -21.768239 -3.977001 
rfingers 0.000000 
rthumb 4.632575 -33.906360 
lclavicle 0.000000 0.000000 
lhumerus -34.608490 42.388240 69.466869 
lradius 25.175830 
lwrist -59.473570 
lhand -11.142732 4.233435 
lfingers 0.000000 
lthumb 14.883018 33.678857 
rfemur -25.167871 -10.585998 9.293370 
rtibia 73.603226 
rfoot -11.821947 -11.033755 
rtoes -13.798428 
lfemur -16.591929 -2.325766 -32.072327 
ltibia 21.637697 
lfoot -17.819139 3.480646 
ltoes -10.024256 
184
root -11.139994 16.920650 -10.485555 0.942661 -29.186274 12.416642
lowerback -9.887492 -1.680886 -10.205609 
upperback 1.850242 -0.689292 -2.931855 
thorax 7.668843 -0.695931 2.494704 
lowerneck -1.734635 -6.117403 -6.451967 
upperneck 7.741911 -8.445772 7.288532 
head 3.361625 -4.130865 3.109984 
rclavicle 0.000000 0.000000 
rhumerus -40.628822 -29.322240 -76.179559 
rradius 33.922017 
rwrist 39.034175 
rhand -21.798935 -4.056359 
rfingers 0.000000 
rthumb 4.602928 -33.986383 
lclavicle 0.000000 0.000000 
lhumerus -33.951651 41.893375 70.074100 
lradius 25.332258 
lwrist -58.955038 
lhand -11.245728 4.314489 
lfingers 0.000000 
lthumb 14.783745 33.767200 
rfemur -25.996870 -10.560308 9.472452 
rtibia 73.736944 
rfoot -12.170391 -11.093914 
rtoes -13.804406 
lfemur -16.441962 -2.090954 -32.103827 
ltibia 21.625105 
lfoot -18.002285 3.288389 
ltoes -10.124337 
185
root -11.160826 16.918411 -10.441103 1.009625 -29.171084 12.413087
lowerback -9.738561 -1.775847 -10.299010 
upperback 1.790640 -0.831288 -2.904812 
thorax 7.538220 -0.762697 2.555584 
lowerneck -1.698909 -6.073209 -6.435550 
upperneck 7.646654 -8.367515 7.090795 
head 3.468452 -4.108294 3.193413 
rclavicle 0.000000 0.000000 
rhumerus -40.754744 -29.299889 -76.158205 
rradius 33.978142 
rwrist 39.140702 
rhand -21.721624 -4.076782 
rfingers 0.000000 
rthumb 4.677588 -34.005133 
lclavicle 0.000000 0.000000 
lhumerus -33.303269 41.362070 70.640757 
lradius 25.483967 
lwrist -58.356385 
lhand -11.240389 4.238750 
lfingers 0.000000 
lthumb 14.788877 33.691045 
rfemur -26.848673 -10.530353 9.653735 
rtibia 73.848348 
rfoot -12.710039 -11.035756 
rtoes -14.087570 
lfemur -16.359360 -1.973889 -32.126712 
ltibia 21.700668 
lfoot -18.190924 3.154415 
ltoes -10.279988 
186
root -11.179260 16.917378 -10.390060 1.141477 -29.249458 12.346486
lowerback -9.716949 -1.850708 -10.320123 
upperback 1.772225 -0.941584 -2.805024 
thorax 7.521430 -0.819159 2.656006 
lowerneck -1.804240 -6.028843 -6.483734 
upperneck 7.885582 -8.318429 7.154592 
head 3.311309 -4.066012 2.992933 
rclavicle 0.000000 0.000000 
rhumerus -40.709500 -29.080096 -76.203767 
rradius 34.116616 
rwrist 38.672413 
rhand -21.604690 -4.196227 
rfingers 0.000000 
rthumb 4.790495 -34.122057 
lclavicle 0.000000 0.000000 
lhumerus -32.542932 40.844932 71.421499 
lradius 25.635874 
lwrist -57.629286 
lhand -11.357557 4.235867 
lfingers 0.000000 
lthumb 14.676060 33.696409 
rfemur -27.791269 -10.512958 9.879856 
rtibia 73.910768 
rfoot -13.072106 -10.935948 
rtoes -14.314913 
lfemur -16.336992 -2.014561 -32.094317 
ltibia 21.828181 
lfoot -18.535710 3.218959 
ltoes -10.450390 
187
root -11.199692 16.914295 -10.332918 1.300832 -29.349865 12.236616
lowerback -9.798959 -1.904164 -10.260191 
upperback 1.758577 -1.016743 -2.733468 
thorax 7.562646 -0.856687 2.684998 
lowerneck -1.801551 -5.979780 -6.507533 
upperneck 7.956005 -8.258403 7.193420 
head 3.228687 -4.029831 2.919273 
rclavicle 0.000000 0.000000 
rhumerus -40.683294 -29.172138 -76.119305 
rradius 34.065801 
rwrist 38.422029 
rhand -21.642908 -3.970534 
rfingers 0.000000 
rthumb 4.753548 -33.897238 
lclavicle 0.000000 0.000000 
lhumerus -31.804190 40.298327 72.187042 
lradius 25.920197 
lwrist -57.004470 
lhand -11.290855 4.369086 
lfingers 0.000000 
lthumb 14.740251 33.824975 
rfemur -28.660493 -10.463645 10.129140 
rtibia 73.863545 
rfoot -13.318431 -10.723007 
rtoes -14.575330 
lfemur -16.285441 -2.052502 -32.026051 
ltibia 21.947900 
lfoot -19.017754 3.253865 
ltoes -9.867600 
188
root -11.221733 16.910227 -10.276571 1.250305 -29.454860 12.214302
lowerback -9.672046 -1.975053 -10.232120 
upperback 1.797386 -1.131006 -2.710932 
thorax 7.545736 -0.912430 2.676124 
lowerneck -1.983895 -5.912847 -6.603242 
upperneck 8.068644 -8.162220 7.211424 
head 3.290371 -3.979838 2.937600 
rclavicle 0.000000 0.000000 
rhumerus -40.705577 -29.167146 -76.176968 
rradius 34.134545 
rwrist 38.494396 
rhand -21.770517 -4.002763 
rfingers 0.000000 
rthumb 4.630381 -33.932185 
lclavicle 0.000000 0.000000 
lhumerus -31.052801 39.692581 72.852483 
lradius 26.146032 
lwrist -56.103137 
lhand -11.286371 4.299603 
lfingers 0.000000 
lthumb 14.744594 33.755185 
rfemur -29.302761 -10.340159 10.254475 
rtibia 73.763012 
rfoot -13.726123 -10.510714 
rtoes -14.449568 
lfemur -16.050729 -2.061151 -32.040903 
ltibia 22.079541 
lfoot -19.438982 3.309936 
ltoes -9.770465 
189
root -11.240158 16.905961 -10.220231 1.277744 -29.448224 12.160923
lowerback -9.619916 -2.018376 -10.219375 
upperback 1.780361 -1.199635 -2.700865 
thorax 7.505573 -0.943478 2.669939 
lowerneck -1.866355 -5.896780 -6.486287 
upperneck 7.834064 -8.110079 6.862375 
head 3.528137 -3.985138 3.126335 
rclavicle 0.000000 0.000000 
rhumerus -40.871422 -29.159330 -76.143301 
rradius 34.115388 
rwrist 38.660545 
rhand -21.920941 -4.032855 
rfingers 0.000000 
rthumb 4.485095 -33.965380 
lclavicle 0.000000 0.000000 
lhumerus -30.378148 38.754842 73.515951 
lradius 26.396559 
lwrist -55.249622 
lhand -11.240975 4.291086 
lfingers 0.000000 
lthumb 14.788353 33.743491 
rfemur -30.002401 -10.343723 10.396017 
rtibia 73.590363 
rfoot -14.065942 -10.255612 
rtoes -15.168331 
lfemur -15.886854 -2.123915 -32.050111 
ltibia 22.228660 
lfoot -19.778285 3.331548 
ltoes -9.745505 
